<svg xmlns="http://www.w3.org/2000/svg" xmlns:xlink="http://www.w3.org/1999/xlink" zoomAndPan="magnify" preserveAspectRatio="xMidYMid meet" version="1.2" viewBox="0 68.93 382.71 253.16"><defs><clipPath id="4e29cd2fb6"><path d="M 0 68 L 162.75 68 L 162.75 316 L 0 316 Z M 0 68 "/></clipPath><clipPath id="ba7fc1265c"><path d="M 162.75 68 L 325.5 68 L 325.5 316 L 162.75 316 Z M 162.75 68 "/></clipPath><clipPath id="ed4234d29e"><path d="M 0 68 L 325.5 68 L 325.5 316 L 0 316 Z M 0 68 "/></clipPath><clipPath id="87f561df7c"><path d="M 203.578125 68.933594 L 203.578125 135.507812 C 241.773438 101.320312 302.878906 116.5 320.476562 164.523438 C 345.015625 231.503906 274.78125 292.460938 213.53125 255.207031 L 203.578125 247.753906 L 203.578125 263.242188 L 177.257812 263.242188 L 177.257812 210.996094 L 202.800781 185.835938 L 202.800781 197.835938 C 202.800781 200.277344 205.269531 207.945312 206.296875 210.589844 C 220.476562 247.121094 271.511719 250.386719 291.375 216.730469 C 318.9375 170.003906 261.644531 117.070312 216.332031 156.398438 C 193.40625 176.296875 172.960938 202.199219 150.125 222.566406 C 147.847656 243.851562 150.316406 264.871094 138.960938 284.15625 C 119.40625 317.34375 69.449219 322.097656 36.875 307.261719 C 17.863281 298.5625 6.851562 282.441406 0 263.230469 L 28.253906 263.230469 C 40.636719 289.292969 75.984375 295.957031 100.652344 284.539062 C 117.421875 276.785156 121.808594 263.941406 122.304688 246.203125 C 121.832031 245.65625 112.105469 252.789062 110.707031 253.566406 C 70.1875 276.441406 16.25 256.71875 3.484375 211.367188 C -16.414062 140.644531 67.273438 87.117188 122.304688 135.507812 L 122.304688 120.023438 L 148.230469 120.023438 L 149.386719 121.179688 L 149.386719 169.941406 L 123.078125 195.867188 C 126.511719 159.160156 92.066406 132.980469 57.523438 146.964844 C 25.035156 160.113281 16.351562 205.566406 44.515625 227.589844 C 62.199219 241.421875 91.6875 240.636719 108.726562 226.027344 L 177.257812 157.542969 L 177.257812 68.933594 Z M 203.578125 68.933594 "/></clipPath><linearGradient x1="0.000000000000014211" gradientTransform="matrix(1.271484,0,0,1.271484,0.0000072,29.339839)" y1="0" x2="255.999988" gradientUnits="userSpaceOnUse" y2="0" id="f6348e4da1"><stop style="stop-color:#ffffff;stop-opacity:1;" offset="0"/><stop style="stop-color:#ffffff;stop-opacity:1;" offset="0.25"/><stop style="stop-color:#ffffff;stop-opacity:1;" offset="0.375"/><stop style="stop-color:#ffffff;stop-opacity:1;" offset="0.4375"/><stop style="stop-color:#ffffff;stop-opacity:1;" offset="0.46875"/><stop style="stop-color:#faeffb;stop-opacity:1;" offset="0.472656"/><stop style="stop-color:#f5dff8;stop-opacity:1;" offset="0.476562"/><stop style="stop-color:#f1cff4;stop-opacity:1;" offset="0.480469"/><stop style="stop-color:#ecc0f1;stop-opacity:1;" offset="0.484375"/><stop style="stop-color:#e7b0ed;stop-opacity:1;" offset="0.488281"/><stop style="stop-color:#e3a0ea;stop-opacity:1;" offset="0.492188"/><stop style="stop-color:#de90e6;stop-opacity:1;" offset="0.496094"/><stop style="stop-color:#d980e3;stop-opacity:1;" offset="0.5"/><stop style="stop-color:#d470df;stop-opacity:1;" offset="0.503906"/><stop style="stop-color:#d060dc;stop-opacity:1;" offset="0.507812"/><stop style="stop-color:#cb50d8;stop-opacity:1;" offset="0.511719"/><stop style="stop-color:#c641d5;stop-opacity:1;" offset="0.515625"/><stop style="stop-color:#c131d1;stop-opacity:1;" offset="0.519531"/><stop style="stop-color:#bd21ce;stop-opacity:1;" offset="0.523438"/><stop style="stop-color:#b811ca;stop-opacity:1;" offset="0.527344"/><stop style="stop-color:#b301c7;stop-opacity:1;" offset="0.53125"/><stop style="stop-color:#b301c7;stop-opacity:1;" offset="0.5625"/><stop style="stop-color:#b301c7;stop-opacity:1;" offset="0.625"/><stop style="stop-color:#b301c7;stop-opacity:1;" offset="0.75"/><stop style="stop-color:#b301c7;stop-opacity:1;" offset="1"/></linearGradient></defs><g id="671a67983d"><g style="fill:#ffffff;fill-opacity:1;"><g transform="translate(150.942257, 296.747907)"><path style="stroke:none" d="M 17.46875 -11.34375 L 22.109375 -11.34375 L 22.109375 -2.421875 C 20.910156 -1.515625 19.523438 -0.820312 17.953125 -0.34375 C 16.390625 0.132812 14.8125 0.375 13.21875 0.375 C 10.9375 0.375 8.882812 -0.109375 7.0625 -1.078125 C 5.238281 -2.054688 3.804688 -3.40625 2.765625 -5.125 C 1.734375 -6.851562 1.21875 -8.804688 1.21875 -10.984375 C 1.21875 -13.171875 1.734375 -15.125 2.765625 -16.84375 C 3.804688 -18.570312 5.25 -19.921875 7.09375 -20.890625 C 8.9375 -21.867188 11.007812 -22.359375 13.3125 -22.359375 C 15.238281 -22.359375 16.988281 -22.03125 18.5625 -21.375 C 20.132812 -20.726562 21.453125 -19.789062 22.515625 -18.5625 L 19.25 -15.546875 C 17.675781 -17.203125 15.78125 -18.03125 13.5625 -18.03125 C 12.164062 -18.03125 10.921875 -17.734375 9.828125 -17.140625 C 8.742188 -16.554688 7.894531 -15.726562 7.28125 -14.65625 C 6.675781 -13.59375 6.375 -12.367188 6.375 -10.984375 C 6.375 -9.628906 6.675781 -8.414062 7.28125 -7.34375 C 7.894531 -6.28125 8.738281 -5.445312 9.8125 -4.84375 C 10.894531 -4.25 12.125 -3.953125 13.5 -3.953125 C 14.96875 -3.953125 16.289062 -4.269531 17.46875 -4.90625 Z M 17.46875 -11.34375 "/></g></g><g style="fill:#ffffff;fill-opacity:1;"><g transform="translate(175.147448, 296.747907)"><path style="stroke:none" d="M 12.375 0.375 C 9.226562 0.375 6.78125 -0.492188 5.03125 -2.234375 C 3.289062 -3.972656 2.421875 -6.453125 2.421875 -9.671875 L 2.421875 -21.984375 L 7.5 -21.984375 L 7.5 -9.859375 C 7.5 -5.921875 9.132812 -3.953125 12.40625 -3.953125 C 14 -3.953125 15.210938 -4.425781 16.046875 -5.375 C 16.890625 -6.332031 17.3125 -7.828125 17.3125 -9.859375 L 17.3125 -21.984375 L 22.328125 -21.984375 L 22.328125 -9.671875 C 22.328125 -6.453125 21.453125 -3.972656 19.703125 -2.234375 C 17.953125 -0.492188 15.507812 0.375 12.375 0.375 Z M 12.375 0.375 "/></g></g><g style="fill:#ffffff;fill-opacity:1;"><g transform="translate(199.886345, 296.747907)"><path style="stroke:none" d="M 19.625 -4.078125 L 19.625 0 L 2.609375 0 L 2.609375 -21.984375 L 19.21875 -21.984375 L 19.21875 -17.90625 L 7.65625 -17.90625 L 7.65625 -13.125 L 17.875 -13.125 L 17.875 -9.171875 L 7.65625 -9.171875 L 7.65625 -4.078125 Z M 19.625 -4.078125 "/></g></g><g style="fill:#ffffff;fill-opacity:1;"><g transform="translate(220.952078, 296.747907)"><path style="stroke:none" d="M 9.828125 0.375 C 8.085938 0.375 6.40625 0.140625 4.78125 -0.328125 C 3.164062 -0.796875 1.863281 -1.410156 0.875 -2.171875 L 2.609375 -6 C 3.546875 -5.3125 4.664062 -4.753906 5.96875 -4.328125 C 7.269531 -3.910156 8.566406 -3.703125 9.859375 -3.703125 C 11.304688 -3.703125 12.375 -3.914062 13.0625 -4.34375 C 13.75 -4.78125 14.09375 -5.351562 14.09375 -6.0625 C 14.09375 -6.582031 13.890625 -7.015625 13.484375 -7.359375 C 13.078125 -7.710938 12.550781 -7.992188 11.90625 -8.203125 C 11.269531 -8.410156 10.410156 -8.640625 9.328125 -8.890625 C 7.648438 -9.285156 6.273438 -9.679688 5.203125 -10.078125 C 4.140625 -10.472656 3.222656 -11.109375 2.453125 -11.984375 C 1.691406 -12.867188 1.3125 -14.046875 1.3125 -15.515625 C 1.3125 -16.796875 1.65625 -17.953125 2.34375 -18.984375 C 3.039062 -20.023438 4.082031 -20.847656 5.46875 -21.453125 C 6.863281 -22.054688 8.566406 -22.359375 10.578125 -22.359375 C 11.984375 -22.359375 13.351562 -22.191406 14.6875 -21.859375 C 16.03125 -21.523438 17.207031 -21.039062 18.21875 -20.40625 L 16.640625 -16.546875 C 14.609375 -17.703125 12.578125 -18.28125 10.546875 -18.28125 C 9.128906 -18.28125 8.078125 -18.046875 7.390625 -17.578125 C 6.710938 -17.117188 6.375 -16.515625 6.375 -15.765625 C 6.375 -15.015625 6.765625 -14.453125 7.546875 -14.078125 C 8.335938 -13.710938 9.539062 -13.351562 11.15625 -13 C 12.820312 -12.601562 14.1875 -12.207031 15.25 -11.8125 C 16.320312 -11.414062 17.238281 -10.785156 18 -9.921875 C 18.769531 -9.066406 19.15625 -7.90625 19.15625 -6.4375 C 19.15625 -5.175781 18.800781 -4.023438 18.09375 -2.984375 C 17.394531 -1.953125 16.34375 -1.132812 14.9375 -0.53125 C 13.539062 0.0703125 11.835938 0.375 9.828125 0.375 Z M 9.828125 0.375 "/></g></g><g style="fill:#ffffff;fill-opacity:1;"><g transform="translate(240.981789, 296.747907)"><path style="stroke:none" d="M 7.15625 -17.84375 L 0.125 -17.84375 L 0.125 -21.984375 L 19.28125 -21.984375 L 19.28125 -17.84375 L 12.25 -17.84375 L 12.25 0 L 7.15625 0 Z M 7.15625 -17.84375 "/></g></g><g style="fill:#ffffff;fill-opacity:1;"><g transform="translate(260.383609, 296.747907)"><path style="stroke:none" d="M 18.75 -11.4375 C 20.007812 -11.03125 20.992188 -10.363281 21.703125 -9.4375 C 22.410156 -8.507812 22.765625 -7.363281 22.765625 -6 C 22.765625 -4.070312 22.015625 -2.585938 20.515625 -1.546875 C 19.023438 -0.515625 16.84375 0 13.96875 0 L 2.609375 0 L 2.609375 -21.984375 L 13.34375 -21.984375 C 16.03125 -21.984375 18.085938 -21.46875 19.515625 -20.4375 C 20.953125 -19.414062 21.671875 -18.023438 21.671875 -16.265625 C 21.671875 -15.203125 21.410156 -14.25 20.890625 -13.40625 C 20.378906 -12.570312 19.664062 -11.914062 18.75 -11.4375 Z M 7.65625 -18.15625 L 7.65625 -12.96875 L 12.71875 -12.96875 C 13.976562 -12.96875 14.929688 -13.1875 15.578125 -13.625 C 16.222656 -14.070312 16.546875 -14.722656 16.546875 -15.578125 C 16.546875 -16.429688 16.222656 -17.070312 15.578125 -17.5 C 14.929688 -17.9375 13.976562 -18.15625 12.71875 -18.15625 Z M 13.59375 -3.828125 C 14.9375 -3.828125 15.945312 -4.046875 16.625 -4.484375 C 17.3125 -4.929688 17.65625 -5.613281 17.65625 -6.53125 C 17.65625 -8.351562 16.300781 -9.265625 13.59375 -9.265625 L 7.65625 -9.265625 L 7.65625 -3.828125 Z M 13.59375 -3.828125 "/></g></g><g style="fill:#ffffff;fill-opacity:1;"><g transform="translate(284.400429, 296.747907)"><path style="stroke:none" d="M 12.375 0.375 C 9.226562 0.375 6.78125 -0.492188 5.03125 -2.234375 C 3.289062 -3.972656 2.421875 -6.453125 2.421875 -9.671875 L 2.421875 -21.984375 L 7.5 -21.984375 L 7.5 -9.859375 C 7.5 -5.921875 9.132812 -3.953125 12.40625 -3.953125 C 14 -3.953125 15.210938 -4.425781 16.046875 -5.375 C 16.890625 -6.332031 17.3125 -7.828125 17.3125 -9.859375 L 17.3125 -21.984375 L 22.328125 -21.984375 L 22.328125 -9.671875 C 22.328125 -6.453125 21.453125 -3.972656 19.703125 -2.234375 C 17.953125 -0.492188 15.507812 0.375 12.375 0.375 Z M 12.375 0.375 "/></g></g><g style="fill:#ffffff;fill-opacity:1;"><g transform="translate(309.139327, 296.747907)"><path style="stroke:none" d="M 2.609375 -21.984375 L 12.59375 -21.984375 C 14.976562 -21.984375 17.085938 -21.523438 18.921875 -20.609375 C 20.753906 -19.703125 22.175781 -18.421875 23.1875 -16.765625 C 24.207031 -15.117188 24.71875 -13.191406 24.71875 -10.984375 C 24.71875 -8.785156 24.207031 -6.859375 23.1875 -5.203125 C 22.175781 -3.554688 20.753906 -2.273438 18.921875 -1.359375 C 17.085938 -0.453125 14.976562 0 12.59375 0 L 2.609375 0 Z M 12.34375 -4.171875 C 14.539062 -4.171875 16.289062 -4.78125 17.59375 -6 C 18.90625 -7.226562 19.5625 -8.890625 19.5625 -10.984375 C 19.5625 -13.078125 18.90625 -14.738281 17.59375 -15.96875 C 16.289062 -17.195312 14.539062 -17.8125 12.34375 -17.8125 L 7.6875 -17.8125 L 7.6875 -4.171875 Z M 12.34375 -4.171875 "/></g></g><g style="fill:#ffffff;fill-opacity:1;"><g transform="translate(335.071213, 296.747907)"><path style="stroke:none" d="M 2.609375 -21.984375 L 12.59375 -21.984375 C 14.976562 -21.984375 17.085938 -21.523438 18.921875 -20.609375 C 20.753906 -19.703125 22.175781 -18.421875 23.1875 -16.765625 C 24.207031 -15.117188 24.71875 -13.191406 24.71875 -10.984375 C 24.71875 -8.785156 24.207031 -6.859375 23.1875 -5.203125 C 22.175781 -3.554688 20.753906 -2.273438 18.921875 -1.359375 C 17.085938 -0.453125 14.976562 0 12.59375 0 L 2.609375 0 Z M 12.34375 -4.171875 C 14.539062 -4.171875 16.289062 -4.78125 17.59375 -6 C 18.90625 -7.226562 19.5625 -8.890625 19.5625 -10.984375 C 19.5625 -13.078125 18.90625 -14.738281 17.59375 -15.96875 C 16.289062 -17.195312 14.539062 -17.8125 12.34375 -17.8125 L 7.6875 -17.8125 L 7.6875 -4.171875 Z M 12.34375 -4.171875 "/></g></g><g style="fill:#ffffff;fill-opacity:1;"><g transform="translate(361.003099, 296.747907)"><path style="stroke:none" d="M 13.15625 -7.78125 L 13.15625 0 L 8.078125 0 L 8.078125 -7.84375 L -0.4375 -21.984375 L 4.96875 -21.984375 L 10.828125 -12.21875 L 16.703125 -21.984375 L 21.703125 -21.984375 Z M 13.15625 -7.78125 "/></g></g><g clip-rule="nonzero" clip-path="url(#4e29cd2fb6)"><path style=" stroke:none;fill-rule:nonzero;fill:#ffffff;fill-opacity:1;" d="M 203.578125 68.933594 L 203.578125 135.507812 C 241.773438 101.320312 302.878906 116.5 320.476562 164.523438 C 345.015625 231.503906 274.78125 292.460938 213.53125 255.207031 L 203.578125 247.753906 L 203.578125 263.242188 L 177.257812 263.242188 L 177.257812 210.996094 L 202.800781 185.835938 L 202.800781 197.835938 C 202.800781 200.277344 205.269531 207.945312 206.296875 210.589844 C 220.476562 247.121094 271.511719 250.386719 291.375 216.730469 C 318.9375 170.003906 261.644531 117.070312 216.332031 156.398438 C 193.40625 176.296875 172.960938 202.199219 150.125 222.566406 C 147.847656 243.851562 150.316406 264.871094 138.960938 284.15625 C 119.40625 317.34375 69.449219 322.097656 36.875 307.261719 C 17.863281 298.5625 6.851562 282.441406 0 263.230469 L 28.253906 263.230469 C 40.636719 289.292969 75.984375 295.957031 100.652344 284.539062 C 117.421875 276.785156 121.808594 263.941406 122.304688 246.203125 C 121.832031 245.65625 112.105469 252.789062 110.707031 253.566406 C 70.1875 276.441406 16.25 256.71875 3.484375 211.367188 C -16.414062 140.644531 67.273438 87.117188 122.304688 135.507812 L 122.304688 120.023438 L 148.230469 120.023438 L 149.386719 121.179688 L 149.386719 169.941406 L 123.078125 195.867188 C 126.511719 159.160156 92.066406 132.980469 57.523438 146.964844 C 25.035156 160.113281 16.351562 205.566406 44.515625 227.589844 C 62.199219 241.421875 91.6875 240.636719 108.726562 226.027344 L 177.257812 157.542969 L 177.257812 68.933594 Z M 203.578125 68.933594 "/></g><g clip-rule="nonzero" clip-path="url(#ba7fc1265c)"><path style=" stroke:none;fill-rule:nonzero;fill:#b301c7;fill-opacity:1;" d="M 203.578125 68.933594 L 203.578125 135.507812 C 241.773438 101.320312 302.878906 116.5 320.476562 164.523438 C 345.015625 231.503906 274.78125 292.460938 213.53125 255.207031 L 203.578125 247.753906 L 203.578125 263.242188 L 177.257812 263.242188 L 177.257812 210.996094 L 202.800781 185.835938 L 202.800781 197.835938 C 202.800781 200.277344 205.269531 207.945312 206.296875 210.589844 C 220.476562 247.121094 271.511719 250.386719 291.375 216.730469 C 318.9375 170.003906 261.644531 117.070312 216.332031 156.398438 C 193.40625 176.296875 172.960938 202.199219 150.125 222.566406 C 147.847656 243.851562 150.316406 264.871094 138.960938 284.15625 C 119.40625 317.34375 69.449219 322.097656 36.875 307.261719 C 17.863281 298.5625 6.851562 282.441406 0 263.230469 L 28.253906 263.230469 C 40.636719 289.292969 75.984375 295.957031 100.652344 284.539062 C 117.421875 276.785156 121.808594 263.941406 122.304688 246.203125 C 121.832031 245.65625 112.105469 252.789062 110.707031 253.566406 C 70.1875 276.441406 16.25 256.71875 3.484375 211.367188 C -16.414062 140.644531 67.273438 87.117188 122.304688 135.507812 L 122.304688 120.023438 L 148.230469 120.023438 L 149.386719 121.179688 L 149.386719 169.941406 L 123.078125 195.867188 C 126.511719 159.160156 92.066406 132.980469 57.523438 146.964844 C 25.035156 160.113281 16.351562 205.566406 44.515625 227.589844 C 62.199219 241.421875 91.6875 240.636719 108.726562 226.027344 L 177.257812 157.542969 L 177.257812 68.933594 Z M 203.578125 68.933594 "/></g><g clip-rule="nonzero" clip-path="url(#ed4234d29e)"><g clip-rule="nonzero" clip-path="url(#87f561df7c)"><path style=" stroke:none;fill-rule:nonzero;fill:url(#f6348e4da1);" d="M 0 68.933594 L 0 322.097656 L 325.5 322.097656 L 325.5 68.933594 Z M 0 68.933594 "/></g></g></g></svg>